<svg width="14" height="14" viewBox="0 0 14 14" fill="none" xmlns="http://www.w3.org/2000/svg">
<path fill-rule="evenodd" clip-rule="evenodd" d="M13.364 13.3653C13.0711 13.6582 12.5962 13.6582 12.3033 13.3653L7 8.06202L1.6967 13.3653C1.40381 13.6582 0.928932 13.6582 0.636039 13.3653C0.343146 13.0724 0.343146 12.5976 0.636039 12.3047L5.93934 7.00136L0.636039 1.69806C0.343146 1.40517 0.343146 0.930291 0.636039 0.637398C0.928932 0.344505 1.40381 0.344505 1.6967 0.637398L7 5.9407L12.3033 0.637398C12.5962 0.344505 13.0711 0.344505 13.364 0.637398C13.6569 0.930291 13.6569 1.40517 13.364 1.69806L8.06066 7.00136L13.364 12.3047C13.6569 12.5976 13.6569 13.0724 13.364 13.3653Z" fill="#756982"/>
</svg>
