<svg width="14" height="14" viewBox="0 0 13 13" fill="none" xmlns="http://www.w3.org/2000/svg">
<circle cx="6.36438" cy="6.37891" r="6" fill="white"/>
<path fill-rule="evenodd" clip-rule="evenodd" d="M9.54593 9.54594C9.39949 9.69239 9.16205 9.69239 9.0156 9.54594L6.36395 6.89429L3.7123 9.54594C3.56586 9.69239 3.32842 9.69239 3.18197 9.54594C3.03553 9.39949 3.03553 9.16206 3.18197 9.01561L5.83362 6.36396L3.18197 3.71231C3.03553 3.56586 3.03553 3.32843 3.18197 3.18198C3.32842 3.03553 3.56586 3.03553 3.7123 3.18198L6.36395 5.83363L9.0156 3.18198C9.16205 3.03553 9.39949 3.03553 9.54593 3.18198C9.69238 3.32843 9.69238 3.56586 9.54593 3.71231L6.89428 6.36396L9.54593 9.01561C9.69238 9.16206 9.69238 9.39949 9.54593 9.54594Z" fill="#756982"/>
</svg>
