<svg width="100" height="76" viewBox="0 0 100 76" fill="none" xmlns="http://www.w3.org/2000/svg">
<g clip-path="url(#clip0_252_5197)">
<mask id="mask0_252_5197" style="mask-type:luminance" maskUnits="userSpaceOnUse" x="58" y="8" width="20" height="67">
<path d="M60.1547 9.15714C58.9196 9.70867 58.9116 11.4337 58.8332 12.3325C58.7069 13.751 58.7308 15.1662 58.7308 16.5802V72.4922V72.4967C58.7331 76.0023 63.0242 73.3717 64.811 72.0995C67.3541 70.2883 69.2068 67.9891 70.7626 65.6694C74.5409 60.0349 76.7484 53.8794 77.5048 47.6162V37.6193C77.1317 34.4916 76.4141 31.3923 75.3654 28.3702C73.1238 21.9152 69.366 15.6894 63.8886 10.3669C63.4723 9.96288 62.8468 9.47149 62.1405 9.19232C61.7936 9.055 61.4263 8.96875 61.0567 8.96875C60.7564 8.96875 60.4527 9.02549 60.1559 9.15827" fill="white"/>
</mask>
<g mask="url(#mask0_252_5197)">
<path d="M77.506 8.96875H58.707V76.0023H77.506V8.96875Z" fill="url(#paint0_linear_252_5197)"/>
</g>
<mask id="mask1_252_5197" style="mask-type:luminance" maskUnits="userSpaceOnUse" x="36" y="6" width="64" height="69">
<path d="M100 6.66016H36.5347V74.2441H100V6.66016Z" fill="white"/>
</mask>
<g mask="url(#mask1_252_5197)">
<path d="M78.4504 19.5646C77.2357 15.2635 76.2508 14.3 71.8516 13.1118C76.2519 11.9236 77.2368 10.9613 78.4504 6.66016C79.665 10.9613 80.65 11.9247 85.0492 13.1118C80.6488 14.3011 79.6639 15.2635 78.4504 19.5646Z" fill="#B499C9"/>
<path d="M47.2168 53.0468C46.2046 49.463 45.3834 48.6595 41.7178 47.6699C45.3834 46.6803 46.2057 45.8768 47.2168 42.293C48.229 45.8768 49.0502 46.6803 52.7158 47.6699C49.0502 48.6595 48.2279 49.463 47.2168 53.0468Z" fill="#B499C9"/>
<path d="M99.5204 20.207C97.2105 16.9817 87.0587 19.8268 74.697 26.6189C74.7243 26.6723 74.7504 26.7267 74.7766 26.7801C74.7902 26.8096 74.8039 26.8391 74.8175 26.8686C84.7738 21.4882 92.6725 19.1686 94.3945 21.5722C96.7738 24.8951 86.4593 35.969 71.3566 46.3098C56.254 56.6483 42.0817 62.3384 39.7024 59.0156C37.5426 56.0014 45.844 46.5969 58.689 37.1549V36.8803C43.7524 47.8464 34.242 59.1245 37.0171 62.9989C40.0379 67.2183 56.4803 61.0594 73.7393 49.2422C91.0006 37.4261 102.542 24.4264 99.5204 20.207Z" fill="#B499C9"/>
</g>
</g>
<defs>
<linearGradient id="paint0_linear_252_5197" x1="57.8641" y1="42.5696" x2="77.6896" y2="42.5696" gradientUnits="userSpaceOnUse">
<stop stop-color="white"/>
<stop offset="1" stop-color="#B499C9"/>
</linearGradient>
<clipPath id="clip0_252_5197">
<rect width="100" height="76" fill="white"/>
</clipPath>
</defs>
</svg>
