<svg width="24" height="18" viewBox="0 0 24 18" fill="none" xmlns="http://www.w3.org/2000/svg">
<path fill-rule="evenodd" clip-rule="evenodd" d="M5.055 0.245625C4.87576 0.0435789 4.60173 -0.0464869 4.33757 0.00983024C4.07341 0.0661473 3.85994 0.260148 3.77869 0.517729C3.69744 0.775311 3.76097 1.05668 3.945 1.25437L5.74875 3.23906C2.34375 5.32875 0.879375 8.55 0.814687 8.69625C0.728449 8.89022 0.728449 9.11165 0.814687 9.30562C0.8475 9.37969 1.64156 11.1403 3.40687 12.9056C5.75906 15.2569 8.73 16.5 12 16.5C13.6806 16.5096 15.3442 16.1636 16.8816 15.4847L18.9441 17.7544C19.1233 17.9564 19.3973 18.0465 19.6615 17.9902C19.9256 17.9339 20.1391 17.7399 20.2204 17.4823C20.3016 17.2247 20.2381 16.9433 20.0541 16.7456L5.055 0.245625ZM9.49219 7.35563L13.3988 11.6541C12.1888 12.2906 10.7014 12.0285 9.78189 11.0168C8.86235 10.005 8.74322 8.49944 9.49219 7.35563ZM12 15C9.11438 15 6.59344 13.9509 4.50656 11.8828C3.64998 11.0315 2.92146 10.0605 2.34375 9C2.78344 8.17594 4.18688 5.86969 6.78281 4.37063L8.47031 6.22219C7.12147 7.94971 7.21341 10.3977 8.68803 12.0192C10.1627 13.6407 12.591 13.964 14.4384 12.7847L15.8194 14.3034C14.6006 14.771 13.3054 15.0072 12 15ZM12.5625 6.05344C12.1555 5.97577 11.8886 5.5829 11.9663 5.17594C12.0439 4.76897 12.4368 4.50202 12.8438 4.57969C14.8069 4.96027 16.2858 6.58682 16.4784 8.57719C16.517 8.98958 16.214 9.35516 15.8016 9.39375C15.7781 9.39513 15.7547 9.39513 15.7312 9.39375C15.3427 9.39542 15.0172 9.10003 14.9812 8.71313C14.8516 7.38935 13.8681 6.30782 12.5625 6.05344ZM23.1825 9.30562C23.1431 9.39375 22.1934 11.4966 20.055 13.4119C19.8561 13.5957 19.5736 13.658 19.3159 13.5749C19.0582 13.4919 18.8652 13.2763 18.8111 13.011C18.757 12.7456 18.8501 12.4718 19.0547 12.2944C20.1038 11.3518 20.9851 10.2378 21.6609 9C21.082 7.93854 20.3518 6.96683 19.4934 6.11531C17.4066 4.04906 14.8856 3 12 3C11.392 2.99926 10.7849 3.04849 10.185 3.14719C9.91951 3.19414 9.64926 3.09498 9.47713 2.88747C9.30501 2.67996 9.25751 2.39603 9.35271 2.14379C9.44792 1.89156 9.67119 1.70983 9.9375 1.66781C10.6192 1.55525 11.3091 1.49912 12 1.5C15.27 1.5 18.2409 2.74312 20.5931 5.09531C22.3584 6.86062 23.1525 8.62219 23.1853 8.69625C23.2716 8.89022 23.2716 9.11165 23.1853 9.30562H23.1825Z" fill="#786387"/>
</svg>
