<svg width="24" height="24" viewBox="0 0 24 24" fill="none" xmlns="http://www.w3.org/2000/svg">
<path fill-rule="evenodd" clip-rule="evenodd" d="M21.5308 20.4686L16.8368 15.7755C19.6631 12.3823 19.3207 7.36618 16.0594 4.3886C12.798 1.41101 7.77157 1.52525 4.64889 4.64792C1.52622 7.77059 1.41199 12.7971 4.38957 16.0584C7.36716 19.3197 12.3833 19.6622 15.7765 16.8358L20.4696 21.5299C20.7627 21.8229 21.2378 21.8229 21.5308 21.5299C21.8239 21.2368 21.8239 20.7617 21.5308 20.4686ZM3.75022 10.4992C3.75022 6.77132 6.7723 3.74925 10.5002 3.74925C14.2281 3.74925 17.2502 6.77132 17.2502 10.4992C17.2502 14.2272 14.2281 17.2492 10.5002 17.2492C6.77401 17.2451 3.75436 14.2255 3.75022 10.4992Z" fill="#756982"/>
</svg>
