<svg width="20" height="15" viewBox="0 0 20 15" fill="none" xmlns="http://www.w3.org/2000/svg">
<path d="M6.76017 11.5481L2.58387 7.35817L2.58384 7.35814C2.10713 6.87997 1.3336 6.87997 0.856899 7.35814C0.381034 7.83546 0.381034 8.60871 0.856899 9.08603L5.89648 14.141C5.89654 14.1411 5.89661 14.1411 5.89667 14.1412C6.12536 14.3708 6.43595 14.5 6.76014 14.5C7.08434 14.5 7.39492 14.3708 7.62361 14.1412C7.62368 14.1411 7.62375 14.1411 7.62381 14.141L19.1431 2.58652C19.619 2.1092 19.619 1.33594 19.1431 0.858622C18.6664 0.380459 17.8929 0.380459 17.4162 0.858622L17.4161 0.858637L6.76017 11.5481Z" fill="#B98CE0" stroke="#B98CE0"/>
</svg>
