<svg width="20" height="12" viewBox="0 0 20 12" fill="none" xmlns="http://www.w3.org/2000/svg">
<path d="M17.6026 10.7576C17.4215 11.2237 17.4216 11.2237 17.4217 11.2238L17.422 11.2239L17.4225 11.2241L17.4238 11.2246L17.4274 11.226L17.4382 11.23C17.447 11.2333 17.4589 11.2376 17.4735 11.2427C17.5028 11.253 17.5435 11.2667 17.5929 11.2818C17.6904 11.3114 17.8278 11.3482 17.981 11.3732C18.1309 11.3977 18.3173 11.4145 18.5058 11.3912C18.6921 11.3682 18.929 11.2995 19.117 11.1079C19.6277 10.5879 19.6277 9.74838 19.117 9.2283L10.9358 0.896098C10.9357 0.896033 10.9357 0.895966 10.9356 0.8959C10.6891 0.644691 10.3527 0.501826 10 0.501826C9.64726 0.501826 9.31088 0.64469 9.0644 0.8959C9.06433 0.895966 9.06427 0.896032 9.0642 0.896098L0.88299 9.2283C0.372337 9.74838 0.372337 10.5879 0.88299 11.1079C1.07104 11.2995 1.30793 11.3682 1.4942 11.3912C1.68267 11.4145 1.86914 11.3977 2.01898 11.3732C2.17225 11.3482 2.30964 11.3114 2.40711 11.2818C2.45649 11.2667 2.49721 11.253 2.52648 11.2427C2.54115 11.2376 2.55304 11.2333 2.5618 11.23L2.57259 11.226L2.57618 11.2246L2.5775 11.2241L2.57804 11.2239L2.57829 11.2238C2.5784 11.2237 2.57851 11.2237 2.39743 10.7576L2.57851 11.2237L2.59909 11.2157L2.61889 11.2059L10 7.55951L17.3811 11.2059L17.4009 11.2157L17.4215 11.2237L17.6026 10.7576Z" 
fill="current" stroke="#current"/>
</svg>
