<svg width="20" height="12" viewBox="0 0 20 12" 
fill="none" xmlns="http://www.w3.org/2000/svg">
<path d="M2.39743 1.1447C2.57851 0.678644 2.5784 0.678601 2.57828 0.678557L2.57804 0.678464L2.5775 0.678253L2.57617 0.677743L2.57259 0.676375L2.5618 0.672327C2.55304 0.669076 2.54115 0.664749 2.52648 0.659597C2.49721 0.649318 2.45649 0.635623 2.40711 0.62059C2.30964 0.590918 2.17225 0.554138 2.01898 0.529134C1.86914 0.504687 1.68267 0.487834 1.4942 0.511122C1.30793 0.534137 1.07104 0.602874 0.88299 0.794397C0.372337 1.31447 0.372337 2.15397 0.88299 2.67404L9.0642 11.0062C9.06426 11.0063 9.06433 11.0064 9.06439 11.0064C9.31088 11.2577 9.64726 11.4005 10 11.4005C10.3527 11.4005 10.6891 11.2577 10.9356 11.0064C10.9357 11.0064 10.9357 11.0063 10.9358 11.0062L19.117 2.67404C19.6277 2.15397 19.6277 1.31447 19.117 0.794397C18.929 0.602874 18.6921 0.534137 18.5058 0.511122C18.3173 0.487834 18.1309 0.504687 17.981 0.529134C17.8278 0.554138 17.6904 0.590918 17.5929 0.62059C17.5435 0.635623 17.5028 0.649318 17.4735 0.659597C17.4589 0.664749 17.447 0.669076 17.4382 0.672326L17.4274 0.676375L17.4238 0.677743L17.4225 0.678253L17.422 0.678464L17.4217 0.678557C17.4216 0.678601 17.4215 0.678644 17.6026 1.1447L17.4215 0.678644L17.4009 0.686641L17.3811 0.696422L10 4.34283L2.61889 0.696422L2.59909 0.686641L2.57851 0.678644L2.39743 1.1447Z" 
fill="current" stroke="#current"/>
</svg>
