<svg width="24" height="25" viewBox="0 0 24 25" fill="none" xmlns="http://www.w3.org/2000/svg">
<g clip-path="url(#clip0_241_3396)">
<path fill-rule="evenodd" clip-rule="evenodd" d="M16.6875 3.75C14.7516 3.75 13.0566 4.5825 12 5.98969C10.9434 4.5825 9.24844 3.75 7.3125 3.75C4.10384 3.75362 1.50362 6.35384 1.5 9.5625C1.5 16.125 11.2303 21.4369 11.6447 21.6562C11.8665 21.7756 12.1335 21.7756 12.3553 21.6562C12.7697 21.4369 22.5 16.125 22.5 9.5625C22.4964 6.35384 19.8962 3.75362 16.6875 3.75ZM12 20.1375C10.2881 19.14 3 14.5959 3 9.5625C3.0031 7.18206 4.93206 5.2531 7.3125 5.25C9.13594 5.25 10.6669 6.22125 11.3062 7.78125C11.4218 8.06259 11.6959 8.24627 12 8.24627C12.3041 8.24627 12.5782 8.06259 12.6938 7.78125C13.3331 6.21844 14.8641 5.25 16.6875 5.25C19.0679 5.2531 20.9969 7.18206 21 9.5625C21 14.5884 13.71 19.1391 12 20.1375Z" 
fill="current"/>
</g>
<defs>
<clipPath id="clip0_241_3396">
<rect width="24" height="24" fill="white" transform="translate(0 0.75)"/>
</clipPath>
</defs>
</svg>
