<svg width="24" height="24" viewBox="0 0 24 24" fill="none" xmlns="http://www.w3.org/2000/svg">
<g clip-path="url(#clip0_241_3387)">
<path fill-rule="evenodd" clip-rule="evenodd" d="M20.25 6H16.5C16.5 3.51472 14.4853 1.5 12 1.5C9.51472 1.5 7.5 3.51472 7.5 6H3.75C2.92157 6 2.25 6.67157 2.25 7.5V18.75C2.25 19.5784 2.92157 20.25 3.75 20.25H20.25C21.0784 20.25 21.75 19.5784 21.75 18.75V7.5C21.75 6.67157 21.0784 6 20.25 6ZM12 3C13.6569 3 15 4.34315 15 6H9C9 4.34315 10.3431 3 12 3ZM20.25 18.75H3.75V7.5H7.5V9C7.5 9.41421 7.83579 9.75 8.25 9.75C8.66421 9.75 9 9.41421 9 9V7.5H15V9C15 9.41421 15.3358 9.75 15.75 9.75C16.1642 9.75 16.5 9.41421 16.5 9V7.5H20.25V18.75Z" 
fill="current"/>
</g>
<defs>
<clipPath id="clip0_241_3387">
<rect width="24" height="24" fill="white"/>
</clipPath>
</defs>
</svg>
