<svg width="24" height="25" viewBox="0 0 24 25" fill="none" xmlns="http://www.w3.org/2000/svg">
<g clip-path="url(#clip0_241_3406)">
<path fill-rule="evenodd" clip-rule="evenodd" d="M12 8.25C9.51472 8.25 7.5 10.2647 7.5 12.75C7.5 15.2353 9.51472 17.25 12 17.25C14.4853 17.25 16.5 15.2353 16.5 12.75C16.4974 10.2658 14.4842 8.25258 12 8.25ZM12 15.75C10.3431 15.75 9 14.4069 9 12.75C9 11.0931 10.3431 9.75 12 9.75C13.6569 9.75 15 11.0931 15 12.75C15 14.4069 13.6569 15.75 12 15.75ZM20.25 12.9525C20.2537 12.8175 20.2537 12.6825 20.25 12.5475L21.6488 10.8C21.7975 10.6139 21.849 10.3683 21.7875 10.1381C21.5582 9.27619 21.2152 8.44861 20.7675 7.67719C20.6486 7.47249 20.4401 7.33592 20.205 7.30875L17.9813 7.06125C17.8888 6.96375 17.795 6.87 17.7 6.78L17.4375 4.55063C17.4101 4.31531 17.2732 4.10677 17.0681 3.98813C16.2964 3.54126 15.4689 3.19859 14.6072 2.96906C14.3769 2.90784 14.1312 2.95969 13.9453 3.10875L12.2025 4.5C12.0675 4.5 11.9325 4.5 11.7975 4.5L10.05 3.10406C9.86393 2.95533 9.61827 2.90383 9.38813 2.96531C8.52633 3.19503 7.6988 3.53802 6.92719 3.98531C6.72249 4.10417 6.58592 4.31268 6.55875 4.54781L6.31125 6.77531C6.21375 6.86844 6.12 6.96219 6.03 7.05656L3.80063 7.3125C3.56531 7.33988 3.35677 7.47682 3.23813 7.68188C2.79126 8.45359 2.44859 9.2811 2.21906 10.1428C2.15784 10.3731 2.20969 10.6188 2.35875 10.8047L3.75 12.5475C3.75 12.6825 3.75 12.8175 3.75 12.9525L2.35406 14.7C2.20533 14.8861 2.15383 15.1317 2.21531 15.3619C2.44462 16.2238 2.78763 17.0514 3.23531 17.8228C3.35417 18.0275 3.56268 18.1641 3.79781 18.1912L6.02156 18.4387C6.11469 18.5362 6.20844 18.63 6.30281 18.72L6.5625 20.9494C6.58988 21.1847 6.72682 21.3932 6.93188 21.5119C7.70359 21.9587 8.5311 22.3014 9.39281 22.5309C9.6231 22.5922 9.86878 22.5403 10.0547 22.3913L11.7975 21C11.9325 21.0037 12.0675 21.0037 12.2025 21L13.95 22.3988C14.1361 22.5475 14.3817 22.599 14.6119 22.5375C15.4738 22.3082 16.3014 21.9652 17.0728 21.5175C17.2775 21.3986 17.4141 21.1901 17.4412 20.955L17.6887 18.7313C17.7862 18.6388 17.88 18.545 17.97 18.45L20.1994 18.1875C20.4347 18.1601 20.6432 18.0232 20.7619 17.8181C21.2087 17.0464 21.5514 16.2189 21.7809 15.3572C21.8422 15.1269 21.7903 14.8812 21.6413 14.6953L20.25 12.9525ZM18.7406 12.3431C18.7566 12.6141 18.7566 12.8859 18.7406 13.1569C18.7295 13.3424 18.7876 13.5255 18.9037 13.6706L20.2341 15.3328C20.0814 15.8179 19.886 16.2885 19.65 16.7391L17.5312 16.9791C17.3467 16.9995 17.1764 17.0877 17.0531 17.2266C16.8727 17.4295 16.6805 17.6217 16.4775 17.8022C16.3387 17.9254 16.2505 18.0958 16.23 18.2803L15.9947 20.3972C15.5442 20.6333 15.0736 20.8287 14.5884 20.9813L12.9253 19.6509C12.7922 19.5446 12.6269 19.4867 12.4566 19.4869H12.4116C12.1405 19.5028 11.8688 19.5028 11.5978 19.4869C11.4123 19.4757 11.2292 19.5338 11.0841 19.65L9.41719 20.9813C8.93206 20.8286 8.46146 20.6331 8.01094 20.3972L7.77094 18.2812C7.75046 18.0967 7.66227 17.9264 7.52344 17.8031C7.32048 17.6227 7.12827 17.4305 6.94781 17.2275C6.82456 17.0887 6.6542 17.0005 6.46969 16.98L4.35281 16.7437C4.11674 16.2933 3.92128 15.8227 3.76875 15.3375L5.09906 13.6744C5.21522 13.5293 5.27336 13.3462 5.26219 13.1606C5.24625 12.8896 5.24625 12.6179 5.26219 12.3469C5.27336 12.1613 5.21522 11.9782 5.09906 11.8331L3.76875 10.1672C3.9214 9.68206 4.11685 9.21146 4.35281 8.76094L6.46875 8.52094C6.65326 8.50046 6.82362 8.41227 6.94688 8.27344C7.12733 8.07048 7.31954 7.87827 7.5225 7.69781C7.66188 7.57448 7.75043 7.40373 7.77094 7.21875L8.00625 5.10281C8.45672 4.86674 8.92733 4.67128 9.4125 4.51875L11.0756 5.84906C11.2207 5.96522 11.4038 6.02336 11.5894 6.01219C11.8604 5.99625 12.1321 5.99625 12.4031 6.01219C12.5887 6.02336 12.7718 5.96522 12.9169 5.84906L14.5828 4.51875C15.0679 4.6714 15.5385 4.86685 15.9891 5.10281L16.2291 7.21875C16.2495 7.40326 16.3377 7.57362 16.4766 7.69688C16.6795 7.87733 16.8717 8.06954 17.0522 8.2725C17.1754 8.41133 17.3458 8.49952 17.5303 8.52L19.6472 8.75531C19.8833 9.20578 20.0787 9.6764 20.2313 10.1616L18.9009 11.8247C18.7837 11.971 18.7255 12.156 18.7378 12.3431H18.7406Z" 
fill="current"/>
</g>
<defs>
<clipPath id="clip0_241_3406">
<rect width="24" height="24" fill="white" transform="translate(0 0.75)"/>
</clipPath>
</defs>
</svg>
