<svg version="1.0" xmlns="http://www.w3.org/2000/svg"
width="22.400000pt" height="22.200000pt" viewBox="0 0 112.000000 111.000000"
 preserveAspectRatio="xMidYMid meet">

<g transform="translate(0.000000,111.000000) scale(0.100000,-0.100000)"
fill="current" stroke="none">
<path d="M91 1031 c-31 -29 -32 -31 -38 -150 -7 -152 0 -202 34 -235 26 -26
27 -26 190 -26 l165 0 29 29 29 29 0 162 0 162 -29 29 -29 29 -160 0 -160 0
-31 -29z"/>
<path d="M654 1045 c-39 -27 -46 -63 -42 -225 l3 -152 28 -24 c27 -23 33 -24
188 -24 91 0 169 4 180 10 40 22 49 61 49 210 0 149 -9 188 -49 210 -11 6 -89
10 -178 10 -123 0 -163 -3 -179 -15z"/>
<path d="M112 495 c-54 -24 -64 -64 -60 -233 l3 -144 33 -29 32 -29 160 0 159
0 31 30 30 29 0 161 0 160 -29 32 -29 33 -149 2 c-113 2 -156 -1 -181 -12z"/>
<path d="M684 503 c-12 -2 -32 -15 -45 -29 -23 -24 -24 -34 -27 -176 -5 -233
-1 -238 223 -238 224 0 228 5 223 239 -3 149 -3 151 -31 178 -27 28 -28 28
-175 29 -81 1 -157 0 -168 -3z"/>
</g>
</svg>
