<?xml version="1.0" standalone="no"?>
<!DOCTYPE svg PUBLIC "-//W3C//DTD SVG 20010904//EN"
 "http://www.w3.org/TR/2001/REC-SVG-20010904/DTD/svg10.dtd">
<svg version="1.0" xmlns="http://www.w3.org/2000/svg"
 width="22.400000pt" height="22.200000pt" viewBox="0 0 165.000000 159.000000"
 preserveAspectRatio="xMidYMid meet">

<g transform="translate(0.000000,159.000000) scale(0.100000,-0.100000)"
fill="current" stroke="none">
<path d="M139 1499 c-47 -28 -65 -61 -73 -134 -8 -82 5 -131 48 -174 l36 -36
653 -3 c472 -2 659 1 679 9 50 20 86 72 93 133 13 105 -24 187 -98 215 -19 7
-239 11 -665 11 -628 0 -638 -1 -673 -21z"/>
<path d="M166 980 c-68 -21 -100 -78 -100 -180 0 -88 17 -128 67 -159 34 -21
42 -21 687 -21 728 0 687 -4 733 70 18 28 22 50 22 110 0 83 -18 126 -68 164
-28 21 -35 21 -670 23 -353 1 -655 -2 -671 -7z"/>
<path d="M167 446 c-77 -28 -101 -70 -101 -176 -1 -88 19 -132 74 -165 34 -20
49 -20 685 -20 l650 0 33 23 c50 36 67 76 67 162 0 88 -20 132 -75 165 -34 19
-51 20 -665 22 -510 2 -637 0 -668 -11z"/>
</g>
</svg>
