<svg width="36" height="36" viewBox="0 0 36 36" fill="current" xmlns="http://www.w3.org/2000/svg">
<circle cx="18" cy="18" r="18" transform="matrix(-1 0 0 1 36 0)" fill="current"/>
<path fill-rule="evenodd" clip-rule="evenodd" d="M4.5 18C4.5 18.6213 5.00368 19.125 5.625 19.125H16.875V30.375C16.875 30.9963 17.3787 31.5 18 31.5C18.6213 31.5 19.125 30.9963 19.125 30.375V19.125H30.375C30.9963 19.125 31.5 18.6213 31.5 18C31.5 17.3787 30.9963 16.875 30.375 16.875H19.125V5.625C19.125 5.00368 18.6213 4.5 18 4.5C17.3787 4.5 16.875 5.00368 16.875 5.625V16.875H5.625C5.00368 16.875 4.5 17.3787 4.5 18Z" fill="white"/>
</svg>
