<svg width="42" height="36" viewBox="0 0 42 36" fill="current" xmlns="http://www.w3.org/2000/svg">
  <path fill-rule="evenodd" clip-rule="evenodd" d="M30.3822 0C26.5094 0 23.1186 1.66539 21.005 4.48043C18.8913 1.66539 15.5005 0 11.6277 0C5.20892 0.00723482 0.00723482 5.20892 0 11.6277C0 24.7558 19.4652 35.3821 20.2942 35.8209C20.738 36.0597 21.272 36.0597 21.7157 35.8209C22.5447 35.3821 42.0099 24.7558 42.0099 11.6277C42.0027 5.20892 36.801 0.00723482 30.3822 0ZM3.00071 11.6277C3.00071 21.697 17.5804 30.7873 21.005 32.7827C24.4258 30.7854 39.0092 21.682 39.0092 11.6277C39.003 6.86573 35.1442 3.00691 30.3822 3.00071C26.7344 3.00071 23.6718 4.93804 22.3928 8.0644C22.1616 8.62721 21.6134 8.99467 21.005 8.99467C20.3965 8.99467 19.8483 8.62721 19.6171 8.0644C18.3381 4.94367 15.2755 3.00071 11.6277 3.00071C6.86573 3.00691 3.00691 6.86573 3.00071 11.6277Z" fill="current"/>
  <path d="M21.005 32.7827C17.5804 30.7873 3.00071 21.697 3.00071 11.6277C3.00691 6.86573 6.86573 3.00691 11.6277 3.00071C15.2755 3.00071 18.3381 4.94367 19.6171 8.0644C19.8483 8.62721 20.3965 8.99467 21.005 8.99467C21.6134 8.99467 22.1616 8.62721 22.3928 8.0644C23.6718 4.93804 26.7344 3.00071 30.3822 3.00071C35.1442 3.00691 39.003 6.86573 39.0092 11.6277C39.0092 21.682 24.4258 30.7854 21.005 32.7827Z" fill="#FF007A"/>
</svg>
