<svg width="22" height="20" viewBox="0 0 22 20" fill="current" xmlns="http://www.w3.org/2000/svg">
  <path fill-rule="evenodd" clip-rule="evenodd" d="M21.7969 11.75V17.75C21.7969 18.5784 21.1253 19.25 20.2969 19.25H2.29688C1.46845 19.25 0.796875 18.5784 0.796875 17.75V11.75C0.796875 10.9216 1.46845 10.25 2.29688 10.25H6.79688C7.21109 10.25 7.54688 10.5858 7.54688 11C7.54688 11.4142 7.21109 11.75 6.79688 11.75H2.29688V17.75H20.2969V11.75H15.7969C15.3827 11.75 15.0469 11.4142 15.0469 11C15.0469 10.5858 15.3827 10.25 15.7969 10.25H20.2969C21.1253 10.25 21.7969 10.9216 21.7969 11.75ZM7.3275 6.28062L10.5469 3.06031V11C10.5469 11.4142 10.8827 11.75 11.2969 11.75C11.7111 11.75 12.0469 11.4142 12.0469 11V3.06031L15.2662 6.28062C15.5593 6.57368 16.0344 6.57368 16.3275 6.28062C16.6206 5.98757 16.6206 5.51243 16.3275 5.21938L11.8275 0.719375C11.6868 0.578542 11.4959 0.49941 11.2969 0.49941C11.0978 0.49941 10.9069 0.578542 10.7662 0.719375L6.26625 5.21938C5.97319 5.51243 5.97319 5.98757 6.26625 6.28062C6.55931 6.57368 7.03444 6.57368 7.3275 6.28062ZM18.0469 14.75C18.0469 14.1287 17.5432 13.625 16.9219 13.625C16.3006 13.625 15.7969 14.1287 15.7969 14.75C15.7969 15.3713 16.3006 15.875 16.9219 15.875C17.5432 15.875 18.0469 15.3713 18.0469 14.75Z" fill="current"/>
</svg>
